<svg width="57" height="43" fill="none" xmlns="http://www.w3.org/2000/svg"><g opacity=".75" fill="#fff"><path d="M56.685 22.407l-4.073-2.66V16.67a.685.685 0 00-.206-.49.712.712 0 00-.5-.202h-2.453v-7.54h1.157a2.4 2.4 0 001.681-.684c.446-.437.697-1.03.698-1.65v-3.77A2.299 2.299 0 0052.325.71 2.389 2.389 0 0050.61 0H18.8a.713.713 0 00-.5.203.686.686 0 00-.207.49v.315H8.218a.713.713 0 00-.5.203.686.686 0 00-.206.49v.36H5.04V1.7a.686.686 0 00-.206-.49.713.713 0 00-.5-.203H.735a.713.713 0 00-.499.203.686.686 0 00-.207.49v5.014c0 .184.075.36.207.49s.312.202.499.202h1.143v2.946a2.581 2.581 0 00-1.444 1.033 2.497 2.497 0 00.398 3.266 2.61 2.61 0 001.752.672c.465.002.922-.12 1.322-.354.4-.234.727-.57.947-.972a.683.683 0 00-.282-.941.715.715 0 00-.958.282 1.15 1.15 0 01-.45.452 1.18 1.18 0 01-.627.148 1.183 1.183 0 01-.768-.323 1.134 1.134 0 01-.113-1.527c.175-.224.429-.377.712-.429.26-.05.494-.186.662-.386.169-.2.26-.453.26-.712V7.407h1.046a.713.713 0 00.499-.203.686.686 0 00.206-.489v-.36h2.473v.36c0 .184.075.36.207.49s.312.202.499.202h9.875v.34c0 .183.075.359.207.489.133.13.312.202.5.202h9.373v2c0 .45.183.882.507 1.2a1.75 1.75 0 001.222.498h.274v3.327a.682.682 0 00.338.59l7.387 4.435-.373.51h-16.54v-3.586a2.06 2.06 0 00-.621-1.467 2.14 2.14 0 00-1.496-.61H8.132c-.385 0-.763.102-1.093.297-.33.195-.599.474-.778.808l-3.368 6.242-.002.004-.002.004-.005.012a.704.704 0 00-.024.05l-.008.021a.62.62 0 00-.015.042l-.008.032-.008.033-.007.043-.003.024a.684.684 0 00-.003.053v8.689h-.236a.713.713 0 00-.499.203.686.686 0 00-.206.49v3.921c0 .184.074.36.206.49.133.13.312.202.5.202l5.18.002a.712.712 0 00.498-.203.685.685 0 00.207-.49c0-1.038.207-2.067.612-3.026a7.894 7.894 0 011.747-2.566A8.068 8.068 0 0113.432 29a8.19 8.19 0 017.976 1.023 7.918 7.918 0 012.888 4.2 7.81 7.81 0 01.281 2.083c0 .183.075.359.207.489a.712.712 0 00.998 0 .686.686 0 00.207-.49c0-.267-.012-.535-.035-.803h.572v.457c0 .306.125.6.345.816.22.216.52.338.832.338h5.46c.311 0 .61-.122.83-.338.221-.217.345-.51.345-.816v-.456h.601a9.097 9.097 0 00-.035.802c0 .184.074.36.206.49a.712.712 0 00.998 0 .685.685 0 00.207-.49 7.82 7.82 0 011.995-5.206 8.108 8.108 0 014.996-2.63 8.184 8.184 0 015.525 1.248 7.917 7.917 0 013.32 4.508 7.67 7.67 0 01.283 2.08c0 .184.075.36.208.49a.713.713 0 00.997 0 .685.685 0 00.207-.49c0-.269-.012-.537-.035-.802h2.483a.712.712 0 00.5-.203.685.685 0 00.206-.49V22.983a.681.681 0 00-.315-.576zM3.628 6.023H1.44v-3.63h2.188v3.63zM7.512 4.97H5.04V3.445h2.473V4.97zm10.582 1.052h-9.17v-3.63h9.17v3.63zM4.217 23.706h2.24v2.792h-2.24v-2.792zm2.854 11.906l-3.794-.001v-2.538h.246l4.111.001a9 9 0 00-.562 2.538zm12.504-8.1a9.64 9.64 0 00-6.406.1 9.42 9.42 0 00-4.874 4.078l-4.078-.001v-3.807h2.946a.713.713 0 00.5-.203.686.686 0 00.206-.49v-3.483h.756a.713.713 0 00.499-.203.685.685 0 000-.978.713.713 0 00-.5-.203h-3.94l2.823-5.234a.697.697 0 01.26-.27.715.715 0 01.364-.098h3.765v5.602h-.88a.713.713 0 00-.499.202.685.685 0 000 .98.715.715 0 00.499.202h8.56v3.807zm0-5.19h-6.268V16.72h5.563a.71.71 0 01.498.203c.133.13.207.306.207.489v4.91zm31.51-20.813a.967.967 0 01.359.348.94.94 0 01.134.478v3.77a.942.942 0 01-.284.67.979.979 0 01-.684.28h-1.157v-.76c0-.228-.026-.454-.076-.675l1.708-4.111zm-3.86-.125h2.388L48.498 4.07a3.182 3.182 0 00-2.023-.881l.75-1.804zm.3 3.687a1.715 1.715 0 01.517 1.223v13.409c0 .459-.186.898-.517 1.222a1.78 1.78 0 01-1.246.507 1.78 1.78 0 01-1.246-.507 1.712 1.712 0 01-.516-1.222V6.293c0-.34.104-.675.297-.96.194-.283.469-.505.79-.636a1.794 1.794 0 011.921.374zm-1.824-3.687l-.897 2.156a3.13 3.13 0 00-1.243 1.143 3.05 3.05 0 00-.455 1.61v.761h-2.15l2.356-5.67h2.389zm-3.913 0l-2.357 5.67h-2.388l2.357-5.67h2.388zm-3.913 0l-2.355 5.67h-2.388l2.356-5.67h2.387zm-18.37 5.67v-5.67h2.722l-2.356 5.67h-.366zm1.89 0l2.355-5.67h2.389l-2.357 5.67h-2.387zm6.3 0h-2.389l2.357-5.67h2.388l-2.356 5.67zm3.88-5.67h2.389l-2.356 5.67h-2.39l2.357-5.67zm-1.672 9.367a.323.323 0 01-.226-.091.31.31 0 01-.093-.221v-2h2.596v2a.31.31 0 01-.093.22.322.322 0 01-.225.092h-1.96zm1.685 4.324v-2.94h.274c.458 0 .898-.179 1.222-.497.324-.318.507-.75.507-1.2v-2h9.515v7.54h-1.555a.717.717 0 00-.573.29L38.7 19.392l-7.112-4.317zm-10.6 7.308H36.52l-1.184 1.623H20.988v-1.623zm11.939 13.344h-4.99v-3.376h4.99v3.376zm2.243-1.61h-.832V32.12c0-.306-.124-.599-.345-.815a1.188 1.188 0 00-.83-.338h-5.46a1.19 1.19 0 00-.832.338c-.22.216-.344.51-.345.815v1.997h-.803c-.021-.086-.041-.173-.065-.258a9.31 9.31 0 00-4.27-5.518l7.368.012h.001a.712.712 0 00.5-.202.686.686 0 000-.979.712.712 0 00-.498-.203l-7.771-.013V25.39h13.339l-1.158 1.588-2.067-.004h-.001a.713.713 0 00-.5.203.686.686 0 000 .978.71.71 0 00.498.203l8.335.015a9.369 9.369 0 00-2.717 2.455 9.175 9.175 0 00-1.547 3.289zm-.27-7.137l7.013-9.619h1.192v2.341c0 .826.334 1.617.93 2.201a3.205 3.205 0 002.243.912c.842 0 1.65-.328 2.244-.912.595-.584.93-1.375.93-2.201v-2.34H51.2v9.647l-16.3-.03zm17.416 4.264a9.426 9.426 0 00-2.989-2.854l2.99.005v2.849zm3.272 2.872h-1.86v-3.125h1.86v3.125zm0-4.51h-1.86v-1.902a.685.685 0 00-.207-.488.713.713 0 00-.498-.204h-.411v-5.604l2.976 1.944v6.255z"/><path d="M18.777 33.557a3.666 3.666 0 00-3.559-.542 3.598 3.598 0 00-1.505 1.079 3.5 3.5 0 00-.753 1.673c-.006.034-.01.07-.014.105l-.01.071c-.083.798.113 1.6.555 2.274a3.59 3.59 0 001.882 1.435 3.665 3.665 0 002.383-.032 3.585 3.585 0 001.84-1.486 3.47 3.47 0 00.468-2.44 3.513 3.513 0 00-1.287-2.137zm-.445 3.946a2.185 2.185 0 01-1.137.84c-.463.149-.964.14-1.423-.022a2.181 2.181 0 01-1.107-.877 2.115 2.115 0 01-.324-1.36 1.92 1.92 0 01.023-.152c.004-.02.005-.04.01-.06a2.09 2.09 0 01.115-.371c.005-.01.008-.022.012-.032l.026-.053a2.15 2.15 0 01.531-.71 2.228 2.228 0 012.528-.276c.264.145.495.342.678.579a2.128 2.128 0 01.407 1.678c-.055.292-.17.57-.34.816h.001zm26.043-4.731a3.649 3.649 0 00-2.272.786 3.526 3.526 0 00-1.259 2.015c-.172.793-.06 1.62.316 2.343a3.577 3.577 0 001.749 1.624 3.67 3.67 0 002.402.181 3.606 3.606 0 001.981-1.343 3.488 3.488 0 00-.254-4.448 3.587 3.587 0 00-1.206-.856 3.65 3.65 0 00-1.457-.302zm2.09 4.17c-.164.517-.52.954-.999 1.224a2.225 2.225 0 01-1.58.231 2.19 2.19 0 01-1.32-.884 2.114 2.114 0 01-.355-1.53c.083-.535.369-1.02.8-1.357a2.218 2.218 0 012.968.219 2.125 2.125 0 01.486 2.096z"/><path d="M16.518 29.607c-1.35 0-2.67.393-3.793 1.129a6.726 6.726 0 00-2.514 3.005 6.578 6.578 0 00-.388 3.869 6.658 6.658 0 001.868 3.429 6.868 6.868 0 003.495 1.832 6.95 6.95 0 003.944-.38 6.8 6.8 0 003.064-2.467 6.607 6.607 0 001.15-3.72 6.64 6.64 0 00-2.001-4.733 6.902 6.902 0 00-4.825-1.964zm5.369 6.01a.71.71 0 00-.442.228.684.684 0 000 .917.71.71 0 00.442.228c-.062.465-.186.92-.37 1.352a.718.718 0 00-.498-.019.702.702 0 00-.386.31.68.68 0 00.183.897c-.29.371-.63.704-1.01.99a.717.717 0 00-.915-.18.695.695 0 00-.314.379.68.68 0 00.02.489c-.442.18-.905.302-1.38.362a.687.687 0 00-.232-.434.713.713 0 00-.934 0 .687.687 0 00-.233.434 5.457 5.457 0 01-1.379-.362.68.68 0 00.02-.489.695.695 0 00-.315-.38.717.717 0 00-.915.18 5.405 5.405 0 01-1.01-.99.68.68 0 00.183-.896.702.702 0 00-.385-.309.717.717 0 00-.498.018 5.193 5.193 0 01-.37-1.352.71.71 0 00.443-.229.684.684 0 000-.916.71.71 0 00-.442-.228 5.19 5.19 0 01.369-1.352c.158.064.334.07.497.017a.702.702 0 00.385-.309.681.681 0 00-.18-.896c.29-.372.63-.704 1.008-.99a.717.717 0 00.913.177.696.696 0 00.316-.377.68.68 0 00-.018-.488c.441-.18.905-.302 1.379-.362.02.168.103.322.232.434a.713.713 0 00.935 0 .687.687 0 00.232-.434c.474.06.938.182 1.38.362a.68.68 0 00-.018.488.695.695 0 00.314.378.718.718 0 00.914-.178c.379.286.718.618 1.009.99a.68.68 0 00-.184.898.702.702 0 00.387.31.72.72 0 00.499-.02c.183.432.307.887.368 1.352zm22.488-6.01c-1.35 0-2.67.393-3.793 1.129a6.726 6.726 0 00-2.514 3.005 6.579 6.579 0 00-.388 3.869 6.658 6.658 0 001.868 3.429 6.868 6.868 0 003.495 1.832 6.95 6.95 0 003.944-.38 6.8 6.8 0 003.064-2.467 6.607 6.607 0 001.15-3.72A6.64 6.64 0 0049.2 31.57a6.902 6.902 0 00-4.825-1.964zm5.368 6.01a.71.71 0 00-.439.23.685.685 0 000 .913.71.71 0 00.44.23c-.062.465-.186.92-.37 1.352a.718.718 0 00-.498-.019.702.702 0 00-.386.31.68.68 0 00.183.897c-.29.372-.63.704-1.01.99a.716.716 0 00-.915-.18.695.695 0 00-.314.38.68.68 0 00.02.488c-.442.18-.906.302-1.38.362a.687.687 0 00-.232-.434.713.713 0 00-.934 0 .687.687 0 00-.233.434 5.453 5.453 0 01-1.379-.362.68.68 0 00.02-.489.694.694 0 00-.315-.38.717.717 0 00-.915.18 5.407 5.407 0 01-1.01-.99.68.68 0 00.184-.898.702.702 0 00-.386-.308.718.718 0 00-.499.02 5.19 5.19 0 01-.369-1.353.71.71 0 00.442-.229.684.684 0 000-.916.709.709 0 00-.442-.228 5.19 5.19 0 01.369-1.353.715.715 0 00.497.017.703.703 0 00.385-.308.681.681 0 00-.18-.896c.29-.372.63-.705 1.009-.99a.717.717 0 00.913.177.695.695 0 00.315-.378.68.68 0 00-.018-.488c.441-.18.905-.301 1.38-.361.02.168.103.322.232.434a.713.713 0 00.934 0 .687.687 0 00.233-.434c.474.06.938.181 1.379.362a.68.68 0 00-.018.487c.055.16.167.294.315.378a.717.717 0 00.913-.177c.38.285.718.618 1.009.99a.68.68 0 00-.184.898.703.703 0 00.387.309.72.72 0 00.499-.02c.184.433.308.888.368 1.353z"/></g></svg>