<svg width="45" height="45" fill="none" xmlns="http://www.w3.org/2000/svg"><g opacity=".75" fill="#fff"><path d="M35.25 26.25a.75.75 0 00.75-.75v-.75a.75.75 0 10-1.5 0v.75a.75.75 0 00.75.75zm-3 0a.75.75 0 00.75-.75v-.75a.75.75 0 10-1.5 0v.75a.75.75 0 00.75.75zm2.47 1.72a1.373 1.373 0 01-1.94 0 .75.75 0 00-1.06 1.06 2.873 2.873 0 004.06 0 .75.75 0 00-1.06-1.06z"/><path d="M39.75 33.75H37.5a.75.75 0 01-.75-.75v-.945A5.257 5.257 0 0039 27.75a2.257 2.257 0 002.25-2.25v-.75a2.24 2.24 0 00-.75-1.665V19.5a3.75 3.75 0 00-3.75-3.75v-1.17l1.178.63a2.599 2.599 0 002.684.127 2.634 2.634 0 00.15-4.552L21.36.09a.765.765 0 00-.72 0L1.185 10.815a2.636 2.636 0 001.462 4.838c.486.004.961-.137 1.365-.405l1.238-.668V30H4.117a2.25 2.25 0 00-2.197 2.737l2.34 10.5A2.232 2.232 0 006.45 45h37.8a.75.75 0 00.75-.75V39a5.256 5.256 0 00-5.25-5.25zm-2.61 1.462a4.506 4.506 0 01-6.78 0A2.243 2.243 0 0032.25 33v-.218c.979.29 2.021.29 3 0V33a2.242 2.242 0 001.89 2.212zm.36-7.462a3.75 3.75 0 11-7.5 0l.06-5.25a3.818 3.818 0 001.703-.405l.487-.255.435.233a3.825 3.825 0 001.74.427H37.5v5.25zm2.25-3v.75a.75.75 0 01-.75.75V24a.75.75 0 01.75.75zM39 19.5v3a1.505 1.505 0 00-1.5-1.5h-3.075a2.3 2.3 0 01-1.042-.255l-.78-.413a.75.75 0 00-.69 0l-.833.42c-.334.17-.705.256-1.08.248a1.505 1.505 0 00-1.5 1.5v-3A1.505 1.505 0 0130 18h.75a.75.75 0 01.75.75.75.75 0 101.5 0V18a.75.75 0 01.75-.75h3A2.257 2.257 0 0139 19.5zM3.247 13.965A1.125 1.125 0 011.5 13.02a1.11 1.11 0 01.457-.915L21 1.605l18.99 10.47a1.133 1.133 0 01-.083 1.943 1.176 1.176 0 01-1.214-.09L21.353 4.59a.735.735 0 00-.706 0l-17.4 9.375zM6.45 43.5a.74.74 0 01-.728-.585l-2.332-10.5a.75.75 0 01.142-.637.768.768 0 01.585-.278H20.55a.739.739 0 01.727.585L23.813 43.5H6.45zm17.182-7.725l-.892-4.012A2.232 2.232 0 0020.55 30H6.75V14.137a.782.782 0 00-.075-.322L21 6.105l14.25 7.665v1.98h-1.5a2.25 2.25 0 00-1.898 1.043 2.2 2.2 0 00-1.102-.293H30a3 3 0 00-3 3v3.585a2.239 2.239 0 00-.75 1.665v.75a2.257 2.257 0 002.25 2.25 5.257 5.257 0 002.25 4.305V33a.75.75 0 01-.75.75h-2.25a5.281 5.281 0 00-4.117 2.025zM28.5 24v2.25a.75.75 0 01-.75-.75v-.75a.75.75 0 01.75-.75zm3 19.5h-6.15l-.33-1.5H33a1.504 1.504 0 01-1.5 1.5zm12 0h-3v-3.75a.75.75 0 10-1.5 0v3.75h-4.92a2.93 2.93 0 00.42-1.5v-.75a.75.75 0 00-.75-.75h-9.067l-.548-2.468a3.765 3.765 0 013.615-2.782h.825a5.963 5.963 0 0010.35 0h.825A3.75 3.75 0 0143.5 39v4.5z"/><path d="M13.5 39.75a2.25 2.25 0 110-4.501 2.25 2.25 0 010 4.501zm0-3a.75.75 0 100 1.5.75.75 0 000-1.5zm-3-11.25h4.235l3.525 2.834a.75.75 0 00.996-.052.75.75 0 00.221-.526l.017-2.256H22.5a2.25 2.25 0 002.25-2.25v-7.5a2.25 2.25 0 00-2.25-2.25h-12a2.25 2.25 0 00-2.25 2.25v7.5a2.25 2.25 0 002.25 2.25zm-.75-9.75a.75.75 0 01.75-.75h12a.75.75 0 01.75.75v7.5a.75.75 0 01-.75.75h-3.75a.75.75 0 00-.75.744l-.011 1.449-2.519-2.025A.75.75 0 0015 24h-4.5a.75.75 0 01-.75-.75v-7.5z"/><path d="M12 18h.75a.75.75 0 100-1.5H12a.75.75 0 100 1.5zm3 0h6a.75.75 0 100-1.5h-6a.75.75 0 100 1.5zm0 2.25h6a.75.75 0 100-1.5h-6a.75.75 0 100 1.5zm-3 0h.75a.75.75 0 100-1.5H12a.75.75 0 100 1.5zm0 2.25h.75a.75.75 0 100-1.5H12a.75.75 0 100 1.5zm3 0h6a.75.75 0 100-1.5h-6a.75.75 0 100 1.5z"/></g></svg>