<svg width="44" height="44" fill="none" xmlns="http://www.w3.org/2000/svg"><g opacity=".75" fill="#fff"><path d="M33.355 22.71c-1.794 0-3.483.45-4.968 1.237v-3.894a10.582 10.582 0 004.968 1.237C39.225 21.29 44 16.515 44 10.645 44 4.775 39.225 0 33.355 0c-4.161 0-7.762 2.405-9.512 5.892L16.605.56c-.98-.722-2.424-.722-3.404 0L0 10.287v3.906h1.42v13.873A10.571 10.571 0 000 33.355C0 39.225 4.775 44 10.645 44c5.87 0 10.645-4.775 10.645-10.645 0-.729-.074-1.44-.214-2.13h1.849c-.14.69-.215 1.401-.215 2.13C22.71 39.225 27.485 44 33.355 44 39.225 44 44 39.225 44 33.355c0-5.87-4.775-10.645-10.645-10.645zm0-21.29c5.087 0 9.226 4.138 9.226 9.225s-4.14 9.226-9.226 9.226c-5.087 0-9.226-4.139-9.226-9.226 0-5.087 4.139-9.226 9.226-9.226zm-10.61 9.935c.033.481.085.957.18 1.42h-7.312v-1.42h7.133zm-3.909-7.39L17.032 6.13v2.386h1.42v-.98l1.811.905.636-1.27-2.037-1.018 1.12-1.344 3.297 2.43a10.56 10.56 0 00-.532 2.696h-7.134v-8.31c.049.028.105.043.15.076l3.073 2.265zm-4.793-2.263c.046-.034.1-.048.15-.075v8.308H2.87l5.169-3.808.683 1.592 3.914.784.279-1.392-3.182-.636-.52-1.213 4.831-3.56zM1.42 11.355h12.774v1.42H1.42v-1.42zm1.42 2.838h11.355v9.138a10.505 10.505 0 00-1.42-.407v-7.311H4.258v9.246c-.51.385-.986.814-1.42 1.283V14.194zm8.516 8.553c-.236-.016-.47-.036-.71-.036-1.794 0-3.483.45-4.968 1.237v-6.915h5.678v5.714zm-.71 19.835c-5.087 0-9.226-4.14-9.226-9.226 0-5.087 4.14-9.226 9.226-9.226 5.087 0 9.226 4.139 9.226 9.226 0 5.087-4.139 9.226-9.226 9.226zM20.67 29.806a10.688 10.688 0 00-5.056-5.859v-9.753h7.718a10.625 10.625 0 001.528 2.838h-7.827v7.097h8.516v-6.27c.434.468.909.897 1.42 1.282v5.718a10.675 10.675 0 00-3.637 4.947H20.67zm3.46-11.354v4.258h-5.677v-4.258h5.677zm9.226 24.129c-5.087 0-9.226-4.14-9.226-9.226 0-5.087 4.139-9.226 9.226-9.226 5.087 0 9.226 4.139 9.226 9.226 0 5.087-4.14 9.226-9.226 9.226z"/><path d="M14.903 26.968H9.226c-.924 0-1.705.595-1.999 1.42H4.258v4.102l5.677 1.42v1.704a2.126 2.126 0 00-1.419 1.999v1.42c0 1.173.955 2.128 2.13 2.128a2.132 2.132 0 002.128-2.129v-1.42c0-.923-.595-1.704-1.42-1.998V32.8l-5.677-1.42v-1.573h1.55a2.126 2.126 0 001.999 1.419h5.677c1.174 0 2.13-.955 2.13-2.13a2.132 2.132 0 00-2.13-2.128zm-3.548 12.064a.71.71 0 01-1.42 0v-1.42a.71.71 0 011.42 0v1.42zm3.548-9.225H9.226a.71.71 0 010-1.42h5.677a.71.71 0 010 1.42zm15.613-17.033c.368 0 .735-.05 1.098-.15l3.784 3.784c.402.403.937.624 1.505.624.569 0 1.104-.222 1.505-.623.403-.402.624-.937.624-1.506 0-.568-.221-1.103-.623-1.505l-3.785-3.784c.1-.363.15-.73.15-1.098a4.262 4.262 0 00-4.258-4.258h-.294l-1.419 1.42 1.688 1.687a1.422 1.422 0 01-1.125 1.126l-1.689-1.688-1.419 1.42v.293a4.262 4.262 0 004.258 4.258zm-1.713-2.839h.294a2.842 2.842 0 002.838-2.838v-.294l-1.108-1.11a2.843 2.843 0 012.528 2.823c0 .343-.068.69-.202 1.031l-.17.432 4.422 4.422a.7.7 0 01.208.502.697.697 0 01-.208.502.72.72 0 01-1.004 0l-4.42-4.421-.433.17c-.342.133-.69.2-1.032.2a2.843 2.843 0 01-2.821-2.527l1.108 1.108zm2.414 19.111l-1.255.5 3.099 3.1-1.64 1.64c-.788-.356-1.78-.227-2.41.402l-1.419 1.42a2.111 2.111 0 00-.624 1.505c0 .568.221 1.104.624 1.505.401.402.936.624 1.505.624.568 0 1.103-.222 1.505-.624l1.42-1.42a2.11 2.11 0 00.41-2.416l1.633-1.633 3.097 3.098.502-1.253a19.07 19.07 0 001.368-7.107v-.71h-.71c-2.446 0-4.837.461-7.105 1.37zm-.2 7.65L29.6 38.114a.72.72 0 01-1.004 0 .697.697 0 01-.208-.502c0-.192.072-.366.208-.502l1.42-1.42a.698.698 0 01.501-.207c.193 0 .366.072.502.208a.7.7 0 01.208.502.697.697 0 01-.208.501zm5.613-2.49l-4.127-4.126a17.593 17.593 0 015.096-.968 17.62 17.62 0 01-.969 5.095z"/></g></svg>