<svg width="16" height="16" fill="none" xmlns="http://www.w3.org/2000/svg"><path d="M15.448 4.73v.01l.001.012c.049.83.05 1.09.051 3.25v.01s0 0 0 0c0 2.164-.011 2.426-.05 3.269h0v.012a5.332 5.332 0 01-.339 1.772 3.593 3.593 0 01-2.05 2.046 5.362 5.362 0 01-1.774.34h-.02c-.831.049-1.094.049-3.267.049-2.166 0-2.429-.011-3.274-.05h0-.006a5.357 5.357 0 01-1.776-.364l-.001-.001a3.599 3.599 0 01-2.054-2.047 5.341 5.341 0 01-.34-1.771v-.02C.5 10.417.5 10.155.5 7.986c0-2.163.012-2.425.05-3.269h0v-.013a5.305 5.305 0 01.339-1.769A3.586 3.586 0 012.939.89 5.378 5.378 0 014.713.55h.01L4.73.547C5.563.5 5.826.5 8 .5c2.167 0 2.43.01 3.273.048h.012a5.378 5.378 0 011.775.34 3.596 3.596 0 012.05 2.048c.216.573.331 1.18.34 1.793zM11.234 2.7l.353.353-.353-.354a1.457 1.457 0 00-.178 1.844 4.612 4.612 0 00-3.062-1.162 4.603 4.603 0 00-4.608 4.6 4.603 4.603 0 004.608 4.601 4.611 4.611 0 003.258-1.347 4.597 4.597 0 00.194-6.3 1.456 1.456 0 10-.212-2.235zm-1.072 5.28c0 1.195-.97 2.164-2.168 2.164A2.166 2.166 0 015.826 7.98c0-1.194.97-2.163 2.168-2.163 1.198 0 2.168.97 2.168 2.163z" stroke="#000" stroke-opacity=".51"/></svg>