<svg width="19" height="11" fill="none" xmlns="http://www.w3.org/2000/svg"><path d="M9.325 10.43h-.018l-.015.002s0 0 0 0h-.015l-.064.002c-.06 0-.152-.003-.27-.012a5.09 5.09 0 01-.999-.19c-.824-.239-1.922-.762-2.976-1.907h0l-.004-.005C3.804 7.092 2.692 5.252 1.86 3.69A43.007 43.007 0 01.539.972 1.014 1.014 0 01.625.965h2.652l.075.021c.074.023.13.048.157.064.003.004.01.012.018.03a.284.284 0 01.014.032v.004l.007.025.013.032.465-.185-.465.185h0v.001l.001.003.005.011.016.04.062.15c.054.129.131.31.227.521.19.422.458.977.758 1.492.576.989 1.02 1.647 1.39 2.03.186.19.39.354.623.433a.883.883 0 00.731-.065.951.951 0 00.387-.411 2.03 2.03 0 00.168-.473c.075-.32.11-.696.124-1.039a12.901 12.901 0 00-.013-1.31l-.001-.016v-.03a5.373 5.373 0 00-.031-.504c-.03-.294-.094-.708-.242-1.045L7.74.903 7.7.853A1.37 1.37 0 007.407.58c.12-.022.266-.04.442-.052A20.19 20.19 0 019.209.5c.709 0 .93.045 1.168.094l.049.01c.161.04.2.087.214.107.025.035.064.12.08.342a8.453 8.453 0 01-.016.953c-.017.366-.036.802-.036 1.308 0 .077-.003.172-.005.278a8.56 8.56 0 00.006.852 2.3 2.3 0 00.128.632c.077.207.211.427.444.576a.726.726 0 00.618.075c.193-.059.379-.184.56-.35.366-.335.843-.954 1.483-2.042l.004-.006.004-.006a18.52 18.52 0 00.755-1.57 23 23 0 00.289-.704l.016-.043.005-.011V.992l.001-.001h0l-.468-.177.468.177.002-.004a.12.12 0 01.018-.028l.026.006h2.976l.032-.004h.003l.018-.003a1.744 1.744 0 01.313-.002.868.868 0 01.092.013.926.926 0 01-.02.103c-.033.13-.1.303-.213.528-.226.45-.61 1.048-1.18 1.825l-.002.002c-.234.324-.444.602-.628.847l-.067.09c-.157.206-.296.39-.415.555-.256.353-.479.691-.551 1.032-.088.415.057.749.286 1.045.19.244.48.517.826.84l.094.087h0c.76.71 1.2 1.227 1.454 1.564.127.168.208.293.26.378l.05.083.015.024.031.05v.002l.013.018c.05.093.074.16.084.204a.253.253 0 01.007.06.167.167 0 01-.039.03.734.734 0 01-.224.078 1.097 1.097 0 01-.12.017l-2.526.058-.05.001-.035.008-.018.002a.712.712 0 01-.148-.011c-.137-.024-.364-.093-.645-.306l-.008-.006-.009-.006a3.827 3.827 0 01-.602-.564c-.13-.144-.246-.279-.365-.417a26.1 26.1 0 00-.297-.343c-.218-.244-.459-.499-.707-.676-.238-.169-.602-.35-1.008-.214-.335.113-.546.367-.676.601a2.6 2.6 0 00-.258.728 4.654 4.654 0 00-.097.864v.021h0s0 0 0 0 0 0 0 0v.002c0 .004 0 .011-.002.021a.698.698 0 01-.01.08.363.363 0 01-.023.077.66.66 0 01-.122.055.978.978 0 01-.086.025h-1.1zM.385 1.01H.384h0zm2.85-.055c-.001 0-.001 0 0 0h0z" stroke="#000" stroke-opacity=".51"/></svg>