<svg width="47" height="56" fill="none" xmlns="http://www.w3.org/2000/svg"><path d="M46.628 3.602a1.391 1.391 0 00-.898-.32H29.32C28.337 1.351 26.1 0 23.5 0s-4.837 1.352-5.82 3.281H1.27c-.334 0-.662.117-.898.32A1.03 1.03 0 000 4.376v50.531c0 .288.136.57.372.773.236.204.564.321.898.321h44.46c.334 0 .662-.117.898-.32a1.03 1.03 0 00.372-.774V41.234c0-.602-.57-1.093-1.27-1.093-.7 0-1.27.49-1.27 1.093v12.578H2.54V5.47h6.352v2.187h-2.54c-.702 0-1.27.49-1.27 1.094v41.781c0 .604.568 1.094 1.27 1.094h34.297c.701 0 1.27-.49 1.27-1.094V8.75c0-.604-.569-1.094-1.27-1.094h-2.54V5.47h6.35v25.92c0 .602.57 1.093 1.27 1.093.7 0 1.271-.49 1.271-1.093V4.375c0-.288-.136-.57-.372-.773zM19.689 5.469c0-1.81 1.71-3.282 3.811-3.282s3.81 1.472 3.81 3.282v2.187h-7.62V5.47zm-8.257 0h5.717v2.187h-5.717V5.47zm27.946 43.968H7.622V9.844h31.756v39.593zm-3.81-41.78H29.85V5.468h5.717v2.187z" fill="#313D4D"/><path d="M45.73 37.406c.701 0 1.27-.49 1.27-1.093 0-.605-.569-1.094-1.27-1.094-.702 0-1.27.49-1.27 1.093 0 .605.568 1.094 1.27 1.094zM34.297 29.75H18.42c-.701 0-1.27.491-1.27 1.094 0 .602.569 1.093 1.27 1.093h15.878c.7 0 1.27-.49 1.27-1.093s-.57-1.094-1.27-1.094zm-21.594 2.188c.701 0 1.27-.49 1.27-1.094 0-.604-.569-1.094-1.27-1.094-.702 0-1.27.49-1.27 1.094 0 .604.568 1.093 1.27 1.093zm21.594 3.281h-7.875c-.702 0-1.27.49-1.27 1.093 0 .605.568 1.094 1.27 1.094h7.875c.702 0 1.27-.49 1.27-1.093 0-.605-.568-1.094-1.27-1.094zm-21.594 2.187h8.002c.702 0 1.27-.49 1.27-1.093 0-.605-.568-1.094-1.27-1.094h-8.002c-.702 0-1.27.49-1.27 1.093 0 .605.568 1.094 1.27 1.094zm21.594 3.282H18.42c-.701 0-1.27.49-1.27 1.093s.569 1.094 1.27 1.094h15.878c.7 0 1.27-.491 1.27-1.094 0-.602-.57-1.093-1.27-1.093zm-21.594 2.187c.701 0 1.27-.49 1.27-1.094 0-.604-.569-1.093-1.27-1.093-.702 0-1.27.49-1.27 1.093 0 .604.568 1.094 1.27 1.094z" fill="#313D4D"/></svg>