<svg width="60" height="61" fill="none" xmlns="http://www.w3.org/2000/svg"><path d="M59.89 14.457a3.043 3.043 0 00-1.4-1.85 2.957 2.957 0 00-2.28-.305 3.007 3.007 0 00-1.82 1.423l-.5.885a.99.99 0 00-1.359.366l-2.54 4.402-.87-.509a.987.987 0 00-.761-.101 1.005 1.005 0 00-.608.478 1.026 1.026 0 00.37 1.382l.87.509-8.499 14.975-2.1 5.704-1 1.9a3.093 3.093 0 00.16 3.295l-2.249 2.806-.63-1.606a2.003 2.003 0 00-1.698-1.267 1.99 1.99 0 00-1.871.982l-.36.62-.34-4.067a2.02 2.02 0 00-1.753-1.852 1.999 1.999 0 00-2.137 1.375l-2.459 7.502a1.02 1.02 0 00.63 1.282.857.857 0 00.31.08 1 1 0 00.95-.69l2.45-7.503.35 4.127a2.02 2.02 0 001.54 1.812c.847.2 1.723-.18 2.168-.937l.37-.62.62 1.596a2.006 2.006 0 001.563 1.26 1.984 1.984 0 001.857-.742l2.33-2.999c.257.069.523.103.79.102a2.99 2.99 0 002.609-1.505l1-1.698 3.81-4.707 8.587-15.159.87.509a1.03 1.03 0 01.37 1.393l-3.999 7.045a1.03 1.03 0 00.32 1.433c.23.136.505.173.761.103.258-.071.477-.243.609-.478l4-7.046a3.093 3.093 0 00.299-2.318 3.045 3.045 0 00-1.4-1.85l-.87-.509 2.5-4.402c.273-.483.112-1.1-.36-1.383l.5-.884c.41-.713.518-1.563.3-2.359zm-3.77.285c.133-.236.352-.408.61-.478.257-.064.529-.028.76.102.232.134.401.358.47.62.064.261.028.537-.1.772l-.5.885-1.74-1.017.5-.884zM42.493 43.127l-1.98-1.17 1.42-3.862 3.15 1.85-2.59 3.182zm-3 2.938a1.027 1.027 0 01-.3-1.332l.5-.884 1.74 1.017-.5.874a.987.987 0 01-1.44.325zm6.73-7.787l-3.46-2.033 7.998-14.092 3.46 2.034-7.999 14.09zm8.998-15.85l-3.46-2.034 2-3.517 3.46 2.033-2 3.518zM4 48.292c0 4.773 3.804 8.641 8.498 8.641 4.693 0 8.498-3.868 8.498-8.641 0-.562-.447-1.017-1-1.017-.552 0-1 .455-1 1.017 0 3.65-2.909 6.608-6.498 6.608-3.59 0-6.499-2.959-6.499-6.608 0-3.65 2.91-6.609 6.499-6.609a6.373 6.373 0 013.9 1.322.989.989 0 001.399-.203 1.028 1.028 0 00-.2-1.423 8.383 8.383 0 00-8.9-.817C5.817 42.026 4 45.02 4 48.292zM35.994 8.133c.552 0 1-.454 1-1.016s-.448-1.017-1-1.017H9.998c-.552 0-1 .455-1 1.017v4.066c0 .562.448 1.017 1 1.017h25.996c.552 0 1-.455 1-1.017 0-.561-.448-1.016-1-1.016H10.998V8.133h24.996zm-22.996 6.1c-.552 0-1 .455-1 1.017 0 .562.448 1.017 1 1.017h19.996c.553 0 1-.455 1-1.017 0-.562-.447-1.017-1-1.017H12.998zm25.995 7.117H16.997c-.552 0-1 .455-1 1.017 0 .562.448 1.016 1 1.016h21.996c.552 0 1-.454 1-1.016s-.448-1.017-1-1.017zm-9.998 7.117c0-.562-.448-1.017-1-1.017H8c-.553 0-1 .455-1 1.017 0 .562.447 1.016 1 1.016h19.996c.552 0 1-.454 1-1.016z" fill="#313D4D"/><path d="M38.993 27.45h-6.999c-.552 0-1 .455-1 1.017 0 .562.448 1.016 1 1.016h7c.551 0 1-.454 1-1.016s-.449-1.017-1-1.017zm-20.996 7.117c.552 0 1-.455 1-1.017a1.01 1.01 0 00-1-1.017H7.999c-.553 0-1 .456-1 1.017 0 .562.447 1.017 1 1.017h9.998zm3.999 0h7c.551 0 .999-.455.999-1.017a1.01 1.01 0 00-1-1.017h-6.999c-.552 0-1 .456-1 1.017 0 .562.448 1.017 1 1.017z" fill="#313D4D"/><path d="M44.992 46.767c-.552 0-1 .455-1 1.016V57.95c0 .562-.447 1.017-1 1.017H3c-.552 0-1-.455-1-1.017V3.05a1.01 1.01 0 011-1.017h39.994c.552 0 1 .456 1 1.017v19.093c0 .562.447 1.017 1 1.017.551 0 1-.455 1-1.017V3.05c0-1.684-1.344-3.05-3-3.05H2.999C1.343 0 0 1.366 0 3.05v54.9C0 59.635 1.343 61 3 61h39.993c1.656 0 3-1.365 3-3.05V47.783c0-.561-.449-1.016-1-1.016z" fill="#313D4D"/><path d="M15.777 45.557l-3.539 3.59-2.12-2.156a.988.988 0 00-1.41 0 1.025 1.025 0 000 1.443l2.12 2.156c.375.378.882.59 1.41.59a1.983 1.983 0 001.42-.59l3.529-3.6a1.03 1.03 0 00-.052-1.38.988.988 0 00-1.358-.053z" fill="#00309D"/></svg>