<svg width="53" height="42" fill="none" xmlns="http://www.w3.org/2000/svg"><path d="M21.732 13.892h-8.894a.778.778 0 00-.778.78v8.919c0 .43.346.78.778.78h8.894c.428 0 .774-.35.774-.78v-8.92a.777.777 0 00-.774-.779z" fill="#00309D"/><path d="M47.305 5.691V2.813c0-.344-.144-.659-.37-.885-.23-.23-.54-.371-.883-.371h-2.577a1.254 1.254 0 00-1.253 1.256v2.878h5.083zm-3.32 5.008a.778.778 0 111.552 0v16.34a.776.776 0 01-.773.78.778.778 0 01-.778-.78V10.7zM31.748 37.042h4.777v-3.34h-4.777v3.34zm5.551 1.556h-25.32a.78.78 0 01-.778-.78v-4.896c0-.43.35-.777.778-.777h5.555v-4.437c0-.43.346-.777.774-.777h6.333c.428 0 .774.347.774.777v1.383h5.555a.78.78 0 01.777.78v2.274h5.552c.429 0 .778.347.778.777v4.896a.78.78 0 01-.778.78zm-11.884-1.556h4.777V30.65h-4.777v6.392zm-6.329 0h4.777v-8.555h-4.777v8.555zm-6.332 0h4.78v-3.34h-4.78v3.34zM9.478 9.92h31.19V2.813c0-.774.316-1.477.824-1.986A2.795 2.795 0 0143.475 0h2.577c.771 0 1.473.318 1.98.827a2.81 2.81 0 01.825 1.986V9.92h3.368c.429 0 .775.35.775.78v30.523c0 .43-.346.777-.775.777H30.731a.775.775 0 01-.774-.777c0-.43.346-.78.774-.78h20.717V11.476h-2.591v5.63c0 .43-.35.78-.778.78a.777.777 0 01-.774-.78V7.247h-5.083V30.49h5.083v-9.857c0-.43.346-.78.774-.78a.78.78 0 01.778.78v10.634c0 .188-.05.283-.132.442l-3.269 6.456a.772.772 0 01-1.385.003l-3.28-6.474c-.077-.156-.124-.244-.124-.427V11.476H9.477v5.891c0 .43-.345.78-.774.78a.78.78 0 01-.777-.78V2.187a4.11 4.11 0 00-2.204-.63 4.16 4.16 0 00-2.95 1.224 4.183 4.183 0 00-1.22 2.957v26.596a5.698 5.698 0 014.17-1.81c.63 0 1.241.106 1.82.297.128.044.257.094.383.147V20.896c0-.43.35-.78.778-.78.429 0 .775.35.775.78v11.408a.774.774 0 01-1.244.618 4.15 4.15 0 00-2.512-.842 4.178 4.178 0 00-4.17 4.181 4.173 4.173 0 004.17 4.182h21.494a.778.778 0 010 1.557H5.722a5.699 5.699 0 01-4.047-1.68A5.726 5.726 0 010 36.262V5.738A5.73 5.73 0 015.722 0c1.223 0 2.427.4 3.41 1.13.208.141.346.38.346.65v8.14zm37.34 22.128h-4.111l2.056 4.058 2.054-4.058zM36.441 14.637c.428 0 .774.35.774.78 0 .43-.346.776-.774.776H25.934a.775.775 0 01-.775-.777c0-.43.346-.78.775-.78h10.508zm-4.37 7.433a.778.778 0 010 1.557h-6.138a.777.777 0 01-.775-.78c0-.43.347-.777.775-.777h6.138zm4.37-3.717c.428 0 .774.347.774.78 0 .43-.346.777-.774.777H25.934a.775.775 0 01-.775-.777c0-.433.346-.78.775-.78h10.508z" fill="#313D4D"/></svg>