<svg width="53" height="60" fill="none" xmlns="http://www.w3.org/2000/svg"><path d="M14.27 12.977a4.926 4.926 0 001.026 3.022 5.087 5.087 0 002.681 1.796 5.174 5.174 0 003.243-.163 5.059 5.059 0 002.48-2.055 4.091 4.091 0 001.78.4 4.122 4.122 0 002.706-.994 3.977 3.977 0 001.355-2.502 3.941 3.941 0 00-.675-2.756A4.077 4.077 0 0026.5 8.1v-.126c0-1.06-.43-2.078-1.194-2.828a4.117 4.117 0 00-2.883-1.172 4.117 4.117 0 00-2.883 1.172 3.962 3.962 0 00-1.194 2.828v.1a5.123 5.123 0 00-2.927 1.74 4.951 4.951 0 00-1.15 3.163zm5.063-3l.19.016c.406.019.804.117 1.17.288.368.172.696.414.966.712l1.529-1.322a5.125 5.125 0 00-2.793-1.588c0-.035-.01-.071-.01-.105 0-.53.214-1.04.597-1.414.382-.375.9-.586 1.441-.586.54 0 1.06.21 1.442.586.382.375.597.884.597 1.414-.003.231-.048.46-.132.677a.982.982 0 00.121.918 1.035 1.035 0 00.837.427c.044 0 .147-.014.193-.018.54 0 1.059.21 1.441.586a1.977 1.977 0 010 2.828 2.058 2.058 0 01-2.91-.036 1.024 1.024 0 00-.985-.279 1.02 1.02 0 00-.463.254.996.996 0 00-.27.448 2.983 2.983 0 01-.872 1.394 3.072 3.072 0 01-1.49.736 3.104 3.104 0 01-1.66-.142 3.045 3.045 0 01-1.337-.979 2.943 2.943 0 01-.316-3.132c.248-.5.634-.92 1.114-1.217a3.092 3.092 0 011.6-.46v-.006zM7.135 17c0 .593.179 1.173.515 1.667.336.493.813.878 1.372 1.105a3.112 3.112 0 001.767.17 3.076 3.076 0 001.565-.82c.428-.42.72-.955.837-1.537a2.947 2.947 0 00-.174-1.733 3.013 3.013 0 00-1.126-1.346 3.1 3.1 0 00-3.86.373A2.972 2.972 0 007.134 17zm3.057-1c.202 0 .399.059.567.169.167.11.298.266.375.448a.983.983 0 01-.221 1.09 1.037 1.037 0 01-1.11.217 1.016 1.016 0 01-.458-.368.987.987 0 01.127-1.263 1.03 1.03 0 01.72-.293zM4.077 5c-.806 0-1.595.235-2.265.674A4.017 4.017 0 00.31 7.47a3.93 3.93 0 00-.232 2.31 3.977 3.977 0 001.116 2.048c.57.56 1.297.94 2.088 1.095.79.155 1.61.075 2.355-.228a4.06 4.06 0 001.83-1.473A3.947 3.947 0 008.154 9c0-1.06-.43-2.078-1.194-2.828A4.117 4.117 0 004.077 5zm0 6c-.403 0-.797-.117-1.133-.337a2.008 2.008 0 01-.75-.898 1.965 1.965 0 01-.116-1.155c.078-.388.272-.745.558-1.024a2.05 2.05 0 011.043-.548 2.075 2.075 0 011.178.114c.372.152.69.408.915.737a1.973 1.973 0 01-.254 2.525c-.382.375-.9.586-1.441.586zM12.23 0a3.1 3.1 0 00-1.698.506 3.01 3.01 0 00-1.126 1.346 2.947 2.947 0 00-.174 1.733c.118.582.409 1.117.837 1.536.427.42.972.706 1.565.821a3.113 3.113 0 001.767-.17 3.045 3.045 0 001.372-1.105 2.96 2.96 0 00-.38-3.788A3.088 3.088 0 0012.23 0zm0 4c-.2 0-.398-.059-.566-.169a1.005 1.005 0 01-.375-.448.983.983 0 01.221-1.09 1.038 1.038 0 011.11-.217c.187.076.346.204.458.368a.987.987 0 01-.127 1.263 1.03 1.03 0 01-.72.293z" fill="#00309D"/><path d="M53 2a.988.988 0 00-.216-.615 1.02 1.02 0 00-.556-.355l-4.077-1a1.886 1.886 0 00-.247-.03H37.71c-4.338 0-9.173 2.875-9.173 7 0 .265.108.52.299.707.191.188.45.293.72.293h3.058v5.891L30.781 22H7.135c-.27 0-.53.105-.721.293a.99.99 0 00-.299.707v6c0 .265.108.52.299.707.191.188.45.293.72.293H8.23l1.963 25.066a5.179 5.179 0 001.576 3.433A5.372 5.372 0 0015.288 60H39.75a5.369 5.369 0 003.517-1.496 5.176 5.176 0 001.58-3.427L46.808 30h1.095c.27 0 .53-.105.72-.293a.99.99 0 00.299-.707v-6a.99.99 0 00-.299-.707 1.03 1.03 0 00-.72-.293h-3.262l-1.834-8.109v-3.477L45.268 8h1.617v2c0 .53-.215 1.04-.597 1.414a2.061 2.061 0 01-1.442.586v2a4.117 4.117 0 002.883-1.172A3.962 3.962 0 0048.923 10V7.78l3.305-.81c.22-.054.416-.18.556-.355A.988.988 0 0053 6V2zM28.538 24h10.193v14h-2.039v-9h-2.038v9h-2.039v-5h-2.038v5h-2.039V24zm12.435-9l1.585 7h-9.69l1.582-7h6.523zm-6.32-2v-2h6.116v2h-6.115zm-26.5 15v-4h2.04v2h2.038v-2h2.038v2h2.039v-2h2.038v2h2.039v-2h2.038v2h2.039v-2H26.5v4H8.154zM39.75 58H15.288a3.208 3.208 0 01-1.698-.594A3.117 3.117 0 0112.497 56h30.046a3.12 3.12 0 01-1.094 1.406A3.21 3.21 0 0139.75 58zm3.133-4H12.155l-1.881-24H26.5v9c0 .265.107.52.299.707.19.188.45.293.72.293H39.75c.27 0 .53-.105.72-.293a.99.99 0 00.3-.707v-9h3.995l-1.882 24zm1.963-28v-2h2.039v4h-6.116v-4h2.039v2h2.038zm2.039-20h-2.039c-.27 0-.53.105-.72.293L41.366 9h-6.712V7a.99.99 0 00-.299-.707 1.03 1.03 0 00-.72-.293h-2.886c.745-2.166 3.776-4 6.963-4h9.173v4zm4.077-.781l-2.039.5V2.281l2.038.5v2.438z" fill="#313D4D"/><path d="M15.28 42.876l-2.022.248 1.02 8c.03.242.15.464.336.626.186.16.426.25.674.25h3.058v-2h-2.158l-.908-7.124zM20.385 50h2.038v2h-2.038v-2zm4.077 0H26.5v2h-2.038v-2z" fill="#313D4D"/></svg>