<svg width="61" height="61" fill="none" xmlns="http://www.w3.org/2000/svg"><path d="M22.367 38.633H24.4v14.234h-2.033V38.633zm0 16.267H24.4v2.033h-2.033V54.9zM8.133 38.633h2.034v14.234H8.133V38.633zm0 16.267h2.034v2.033H8.133V54.9z" fill="#313D4D"/><path d="M52.074 15.443v.01l-2.257-1.647V5.917A3.05 3.05 0 0048.8 0h-6.1a3.06 3.06 0 00-3.05 3.05 3.028 3.028 0 002.023 2.857v1.982L32.29 1.067a3.02 3.02 0 00-3.578 0L8.926 15.444a3.044 3.044 0 00-.935 3.833l.183.356a3.05 3.05 0 002.725 1.688c.45 0 .895-.1 1.301-.295v12.22l-2.206-3.304a1.047 1.047 0 00-1.688 0l-4.066 6.1a.983.983 0 00-.173.559v5.083h-3.05A1.017 1.017 0 000 42.7v4.067a1.017 1.017 0 001.017 1.016h3.05v3.05h-3.05A1.017 1.017 0 000 51.85v4.067a1.017 1.017 0 001.017 1.016h3.05v3.05A1.016 1.016 0 005.083 61h8.134a1.017 1.017 0 001.016-1.017v-3.05H18.3v3.05A1.016 1.016 0 0019.317 61h8.133a1.017 1.017 0 001.017-1.017v-3.05h3.05a1.017 1.017 0 001.016-1.016V51.85a1.017 1.017 0 00-1.016-1.017h-3.05v-3.05h3.05a1.017 1.017 0 001.016-1.016V42.7a1.017 1.017 0 00-1.016-1.017h-3.05v-1.016h22.366a1.016 1.016 0 001.017-1.017v-4.067a1.017 1.017 0 00-1.017-1.016H48.8V21.025a3.037 3.037 0 004.026-1.393l.183-.356a3.044 3.044 0 00-.935-3.833zM4.067 54.9H2.033v-2.033h2.034V54.9zm0-9.15H2.033v-2.033h2.034v2.033zM12.2 58.967H6.1V36.905l3.05-4.575 3.05 4.575v22.062zM42.7 2.033h6.1a1.017 1.017 0 010 2.034h-6.1a1.017 1.017 0 010-2.034zM47.783 6.1v6.232l-4.077-2.969V6.1h4.077zM18.3 54.9h-4.067v-2.033H18.3V54.9zm0-4.067h-4.067v-3.05H18.3v3.05zm0-5.083h-4.067v-2.033H18.3v2.033zm8.133 13.217h-6.1V36.905l3.05-4.575 3.05 4.575v22.062zm4.067-6.1V54.9h-2.033v-2.033H30.5zm0-9.15v2.033h-2.033v-2.033H30.5zm-3.05-9.15c-.04 0-.081.02-.122.02l-3.1-4.646a1.047 1.047 0 00-1.689 0l-4.066 6.1a.984.984 0 00-.173.559v5.083h-4.067V19.591L29.89 7.961a1.038 1.038 0 011.22 0l15.657 11.63v14.976H27.45zM49.817 36.6v2.033h-21.35V36.6h21.35zm1.372-18.229l-.183.356a.992.992 0 01-.67.529.983.983 0 01-.845-.173L32.32 6.333a3.02 3.02 0 00-3.64 0L11.51 19.084a.95.95 0 01-.844.173.993.993 0 01-.671-.529l-.183-.356a1.017 1.017 0 01.315-1.28L29.9 2.703a1.028 1.028 0 011.2 0L50.874 17.09a1.027 1.027 0 01.427.824c-.002.159-.04.315-.112.457z" fill="#313D4D"/><path d="M45.75 54.9h-2.033v-2.033h15.25a1.017 1.017 0 001.016-1.017v-4.067a1.017 1.017 0 00-1.016-1.016h-12.2v-3.05A1.016 1.016 0 0045.75 42.7H35.583a1.017 1.017 0 00-1.016 1.017v4.066a1.017 1.017 0 001.016 1.017h2.034v6.1h-2.034a1.017 1.017 0 00-1.016 1.017v4.066A1.017 1.017 0 0035.583 61H45.75a1.017 1.017 0 001.017-1.017v-4.066A1.016 1.016 0 0045.75 54.9zm12.2-4.067H43.717V48.8H57.95v2.033zm-21.35-6.1h8.133v2.034H36.6v-2.034zm3.05 4.067h2.033v6.1H39.65v-6.1zm5.083 10.167H36.6v-2.034h8.133v2.034z" fill="#313D4D"/><path d="M48.8 56.933h1.017V61h2.033v-4.067h1.017V54.9H48.8v2.033zM61 57.95h-4.067v-1.017H54.9V61h2.033v-1.017H61V57.95z" fill="#313D4D"/><circle cx="31" cy="23" r="4" fill="#00309D"/></svg>