<svg width="62" height="61" fill="none" xmlns="http://www.w3.org/2000/svg"><path d="M50.345 58.733v2.025h1.018c3.93 0 7.127-3.18 7.127-7.089h-2.036c0 2.792-2.284 5.064-5.09 5.064h-1.019z" fill="#00309D"/><path d="M48.309 55.695h-1.018v2.025h1.018c3.93 0 7.127-3.18 7.127-7.088H53.4c0 2.791-2.284 5.063-5.091 5.063z" fill="#00309D"/><path d="M54.98 35.548a1.017 1.017 0 00-.454.453L49.1 46.791a.75.75 0 01-.904.371.74.74 0 01-.482-.907l1.572-5.472a1.01 1.01 0 00-.37-1.09 1.02 1.02 0 00-1.155-.042l-9.007 5.7c-.322.204-.7.26-1.066.159a1.31 1.31 0 01-.831-.68 1.311 1.311 0 01.39-1.644l6.581-4.908a1.01 1.01 0 00.313-1.238 1.02 1.02 0 00-1.152-.56l-10.653 2.445a1.547 1.547 0 01-1.193-.207 1.536 1.536 0 01-.682-.997 1.556 1.556 0 011.2-1.818l11.771-2.51c.476-.1.813-.522.805-1.005a1.014 1.014 0 00-.835-.98l-8.477-1.533a1.69 1.69 0 01-1.103-.715 1.693 1.693 0 011.548-2.636l9.801.812a1.01 1.01 0 00.97-.508 1.01 1.01 0 00-.057-1.089l-3.898-5.427a1.387 1.387 0 01.15-1.8 1.414 1.414 0 011.918-.064l6.438 5.604c.289.25.692.318 1.05.178l10.18-4.05-.756-1.88-9.602 3.819-1.463-1.273-3.668-19.703-.01.002a.994.994 0 00-.137-.37 1.02 1.02 0 00-1.04-.443L11.21 6.6c-.266.05-.501.2-.654.423l-6.526 9.44a1.005 1.005 0 00-.162.757L6.77 32.813l-5.935-2.36-.757 1.88 10.182 4.05c.358.143.761.073 1.048-.177l6.44-5.604a1.413 1.413 0 011.918.064c.487.485.551 1.243.15 1.8l-3.898 5.427c-.23.32-.253.745-.057 1.088.195.344.576.55.97.509l9.802-.813a1.698 1.698 0 011.808 1.354c.09.448-.002.905-.26 1.282-.26.38-.65.633-1.103.715L18.6 43.561a1.013 1.013 0 00-.835.98c-.008.485.33.906.805 1.006l11.77 2.51a1.555 1.555 0 011.201 1.817 1.538 1.538 0 01-.682.998 1.55 1.55 0 01-1.194.206l-10.652-2.444a1.021 1.021 0 00-1.152.56c-.202.434-.073.95.312 1.236l6.581 4.91c.512.382.677 1.074.39 1.643a1.31 1.31 0 01-.83.68c-.368.1-.746.046-1.066-.158l-9.008-5.7a1.026 1.026 0 00-1.23.103 1.01 1.01 0 00-.228 1.204l2.036 4.05a1.25 1.25 0 01-.563 1.68 1.259 1.259 0 01-1.688-.56l-5.09-10.127a1.017 1.017 0 00-.456-.453l-6.11-3.039L0 46.475l5.805 2.887 4.94 9.824a3.269 3.269 0 001.904 1.644 3.302 3.302 0 002.516-.178 3.274 3.274 0 001.473-4.397l-.393-.78 5.908 3.737a3.38 3.38 0 002.702.4 3.363 3.363 0 002.109-1.726 3.33 3.33 0 00-.99-4.169l-2.729-2.035 5.96 1.368a3.586 3.586 0 002.757-.48 3.544 3.544 0 001.575-2.3c.358-1.785-.716-3.532-2.421-4.084l3.82-.704c.034.084.06.17.1.254a3.363 3.363 0 002.109 1.726c.914.251 1.9.105 2.702-.4l6.745-4.27-.834 2.908a2.759 2.759 0 001.794 3.385 2.801 2.801 0 003.37-1.387l5.273-10.488L62 34.323l-.911-1.811-6.108 3.036zm-16.674-25.7l-10.184 1.875 4.894-7.079L43.2 2.769l-4.894 7.079zm-18.192 3.35l4.894-7.08 5.177-.954-4.894 7.08-5.178.954zm4.962 1.145l2.038 10.953-6.006 1.106-2.04-10.953 6.008-1.106zM11.994 8.514L22.176 6.64l-4.894 7.08L7.1 15.593l4.894-7.08zm4.412 20.562l-5.969 5.196-1.431-.57-2.952-15.856 11.012-2.028 2.225 11.948a1 1 0 00.44.648c-1.118-.359-2.387-.153-3.325.662zm10.058 7.583l-7.611.63 2.62-3.648a3.398 3.398 0 00-.367-4.41 3.392 3.392 0 00-.965-.663c.05.008.098.027.15.027a.979.979 0 00.187-.017l8.009-1.475c.265-.05.5-.2.653-.422.153-.222.212-.493.162-.758L27.08 13.974l11.012-2.027.449 2.414 2.003-.367-.558-2.998 4.894-7.08 2.75 14.78-2.034-1.77a3.466 3.466 0 00-4.7.155 3.398 3.398 0 00-.367 4.41l2.62 3.648-7.61-.63a3.728 3.728 0 00-3.975 2.974 3.67 3.67 0 00.573 2.817 3.714 3.714 0 002.423 1.569l3.418.617-6.743 1.438c-1.543.33-2.633 1.623-2.8 3.112a3.734 3.734 0 00-1.97-.377zm8.314 6.793l-8.752 1.612-2.002-.427 3.418-.618a3.71 3.71 0 002.422-1.568c.372-.545.57-1.165.62-1.804.72.333 1.522.431 2.31.251l5.96-1.368-2.729 2.036a3.345 3.345 0 00-1.247 1.886z" fill="#313D4D"/><path d="M2.41 7.088h2.036c0-2.791 2.284-5.063 5.09-5.063h1.02V0h-1.02C5.607 0 2.41 3.18 2.41 7.088z" fill="#00309D"/></svg>