<svg width="63" height="63" fill="none" xmlns="http://www.w3.org/2000/svg"><path d="M47.758 32.516a15.14 15.14 0 00-7.113 1.772v-5.575a15.152 15.152 0 007.113 1.77C56.162 30.484 63 23.647 63 15.243S56.163 0 47.758 0C41.8 0 36.645 3.444 34.138 8.437L23.776.8c-1.402-1.033-3.47-1.034-4.873 0L0 14.73v5.594h2.032v19.863A15.135 15.135 0 000 47.758C0 56.162 6.838 63 15.242 63s15.242-6.837 15.242-15.242a15.3 15.3 0 00-.307-3.048h2.647a15.227 15.227 0 00-.308 3.048C32.516 56.162 39.354 63 47.758 63S63 56.163 63 47.758c0-8.404-6.837-15.242-15.242-15.242zm0-30.484c7.284 0 13.21 5.926 13.21 13.21 0 7.284-5.926 13.21-13.21 13.21-7.284 0-13.21-5.927-13.21-13.21 0-7.284 5.926-13.21 13.21-13.21zm-15.19 14.226c.046.689.12 1.37.256 2.032h-10.47v-2.032h10.214zM26.97 5.678l-2.583 3.1v3.415h2.032V10.79l2.595 1.297.909-1.818-2.916-1.458 1.603-1.925 4.722 3.48a15.134 15.134 0 00-.763 3.86H22.355V2.328c.07.039.15.06.215.108l4.4 3.242zm-6.863-3.241c.065-.048.145-.07.216-.108v11.897H4.107l7.402-5.454.977 2.28 5.605 1.122.4-1.992-4.557-.91-.745-1.737 6.918-5.098zM2.032 16.258h18.29v2.032H2.033v-2.032zm2.033 4.065h16.258v13.082c-.66-.235-1.335-.44-2.033-.582V22.355H6.097v13.238a15.358 15.358 0 00-2.032 1.837V20.323zm12.193 12.245c-.337-.022-.673-.052-1.016-.052a15.14 15.14 0 00-7.113 1.772v-9.9h8.13v8.18zm-1.016 28.4c-7.284 0-13.21-5.926-13.21-13.21 0-7.284 5.926-13.21 13.21-13.21 7.284 0 13.21 5.926 13.21 13.21 0 7.284-5.927 13.21-13.21 13.21zm14.353-18.29a15.303 15.303 0 00-7.24-8.39V20.323h11.05a15.212 15.212 0 002.188 4.064H24.387v10.161h12.194V25.57c.62.671 1.3 1.285 2.032 1.837v8.187a15.284 15.284 0 00-5.208 7.083h-3.81zm4.953-16.259v6.097H26.42V26.42h8.13zm13.21 34.549c-7.284 0-13.21-5.926-13.21-13.21 0-7.284 5.926-13.21 13.21-13.21 7.284 0 13.21 5.926 13.21 13.21 0 7.284-5.926 13.21-13.21 13.21z" fill="#fff"/><path d="M21.339 38.613h-8.13c-1.322 0-2.44.852-2.86 2.032H6.096v5.874l8.129 2.033v2.441a3.044 3.044 0 00-2.033 2.862v2.032a3.052 3.052 0 003.049 3.048 3.052 3.052 0 003.048-3.048v-2.032c0-1.323-.852-2.44-2.032-2.862v-4.03L8.13 44.931v-2.254h2.22a3.044 3.044 0 002.86 2.033h8.13a3.052 3.052 0 003.048-3.049 3.052 3.052 0 00-3.048-3.048zm-5.08 17.274a1.017 1.017 0 01-2.033 0v-2.032a1.017 1.017 0 012.032 0v2.032zm5.08-13.21h-8.13a1.017 1.017 0 010-2.032h8.13a1.017 1.017 0 010 2.032zM43.694 18.29c.526 0 1.052-.07 1.572-.214l5.418 5.418a3.026 3.026 0 002.155.893 3.03 3.03 0 002.155-.893 3.026 3.026 0 00.893-2.155c0-.814-.317-1.58-.893-2.155l-5.418-5.419a5.938 5.938 0 00.214-1.572 6.103 6.103 0 00-6.096-6.096h-.421L41.24 8.129l2.416 2.416a2.036 2.036 0 01-1.61 1.612l-2.418-2.416-2.032 2.032v.42a6.103 6.103 0 006.096 6.097zm-2.453-4.064h.42a4.069 4.069 0 004.065-4.065v-.42l-1.587-1.589a4.071 4.071 0 013.62 4.042c0 .49-.099.988-.29 1.476l-.243.619 6.331 6.33c.194.195.298.444.298.72a.997.997 0 01-.298.718 1.03 1.03 0 01-1.437 0l-6.33-6.33-.619.242a4.06 4.06 0 01-1.477.29 4.07 4.07 0 01-4.04-3.62l1.587 1.587zm3.456 27.364l-1.797.715 4.437 4.437-2.347 2.348c-1.129-.509-2.55-.324-3.45.577L39.506 51.7a3.023 3.023 0 00-.894 2.155c0 .814.317 1.58.893 2.155a3.026 3.026 0 002.155.893 3.03 3.03 0 002.155-.893l2.033-2.032a3.026 3.026 0 00.893-2.155 3.02 3.02 0 00-.305-1.306l2.337-2.337 4.436 4.435.718-1.794a27.306 27.306 0 001.96-10.176V39.63H54.87c-3.503 0-6.926.66-10.175 1.96zm-.285 10.951l-2.032 2.032a1.03 1.03 0 01-1.437 0 .997.997 0 01-.298-.718c0-.275.104-.524.298-.719l2.032-2.032a1 1 0 01.718-.298 1 1 0 01.719.298.998.998 0 01.298.719.998.998 0 01-.298.718zm8.035-3.564L46.54 43.07a25.192 25.192 0 017.295-1.386 25.227 25.227 0 01-1.387 7.294z" fill="#fff"/></svg>